<?xml version="1.0" encoding="UTF-8" standalone="no"?>
<!-- Created with Inkscape (http://www.inkscape.org/) -->

<svg
   width="1201.5277"
   height="1282.6282"
   viewBox="0 0 1201.5277 1282.6282"
   version="1.1"
   id="svg5"
   xml:space="preserve"
   xmlns="http://www.w3.org/2000/svg"
   xmlns:svg="http://www.w3.org/2000/svg"><defs
     id="defs2"><clipPath
       clipPathUnits="userSpaceOnUse"
       id="clipPath4349"><circle
         style="display:inline;fill:#e6e6e6;fill-opacity:0;stroke:#000000;stroke-width:1.36266;stroke-dasharray:none;stroke-opacity:1"
         id="circle4351"
         cx="13.440506"
         cy="16.000008"
         r="15.660455" /></clipPath></defs><g
     id="layer2"
     transform="matrix(3.0812828,0,0,3.0812828,-1895.2217,-3285.9291)"><rect
       style="fill:#007894;fill-opacity:1;stroke:#000000;stroke-width:0;stroke-dasharray:none;stroke-opacity:0"
       id="rect3107"
       width="98.389832"
       height="67.5"
       x="765.42871"
       y="1415.1803"
       ry="11.452832" /><path
       d="m 675.06654,1195.901 v 89.987 c 0,67.49 0.054,131.9454 117.282,133.78 l 17.699,-0.298 24.596,-0.601 c 107.36558,1.7298 110.384,-67.79 110.384,-132.881 v -89.987 z"
       fill="#fec478"
       data-original="#fec478"
       class=""
       id="path1053"
       style="fill:#e6e6e6" /><g
       id="g1953"
       transform="matrix(0.91365114,0,0,1,80.950638,-9.1841209)"><path
         d="m 983.39229,1359.3088 a 16.692,11.856401 0 0 0 -18.019,-0.9027 l -159.241,61.6913 v 71.4964 h 133.806 c 7.883,0 14.696,-3.9124 16.358,-9.393 l 33.452,-110.8835 a 16.716,11.873448 0 0 0 -6.356,-12.0085 z"
         fill="#000000"
         data-original="#3c4d5c"
         class=""
         id="path1813"
         style="stroke-width:0.842796" /><path
         d="m 612.61492,1359.3088 a 16.692,11.856401 0 0 1 18.019,-0.9027 l 159.241,61.6913 v 71.4964 h -133.806 c -7.883,0 -14.696,-3.9124 -16.358,-9.393 l -33.452,-110.8835 a 16.716,11.873448 0 0 1 6.356,-12.0085 z"
         fill="#000000"
         data-original="#3c4d5c"
         class=""
         id="path1813-9"
         style="stroke-width:0.842796" /></g><g
       id="g1970"
       transform="translate(13.776181,-9.1841209)"><g
         id="g3053"
         transform="matrix(1,0,0,0.8254263,0,209.49139)"><path
           d="m 390.68,158.424 c 0.901,4.5 -0.3,9 -2.999,12.599 -3.001,3.3 -7.199,5.399 -11.698,5.399 H 136.017 c -4.5,0 -8.698,-2.1 -11.698,-5.399 -2.699,-3.599 -3.899,-8.1 -2.999,-12.599 l 14.397,-71.989 h 240.567 z"
           fill="#000000"
           data-original="#495a79"
           class=""
           id="path1063"
           transform="translate(540.27136,1043.6611)" /><path
           d="m 376.283,86.435 -23.997,29.996 H 159.713 l -23.997,-29.996 8.999,-44.694 c 2.401,-12.599 10.2,-23.398 21.598,-29.996 11.098,-6.6 24.596,-7.799 36.594,-3.899 l 38.995,12.898 c 4.498,1.5 9.299,2.401 14.097,2.401 4.798,0 9.599,-0.901 14.097,-2.401 L 309.091,7.846 c 12.297,-3.899 25.495,-2.701 36.594,3.899 11.398,6.598 19.197,17.397 21.598,29.996 z"
           fill="#000000"
           data-original="#6f7d96"
           class=""
           id="path1049"
           style="display:inline"
           transform="translate(540.27136,1043.6611)" /></g><path
         d="m 991.24336,1210.2334 c 0,5.5153 -6.598,9.8497 -14.998,9.8497 h -359.948 c -8.4,0 -14.998,-4.3344 -14.998,-9.8497 0,-5.5166 6.598,-9.8497 14.998,-9.8497 h 359.949 c 8.398,0 14.997,4.3331 14.997,9.8497 z"
         fill="#000000"
         data-original="#6f7d96"
         class=""
         id="path1067"
         style="fill:#007894;fill-opacity:1;stroke-width:0.810391" /></g><g
       id="g4192"
       transform="matrix(4.9168433,0,0,4.9168433,743.96262,1221.3722)"
       clip-path="url(#clipPath4349)"
       style="fill:#007894;fill-opacity:1"><circle
         cx="4"
         cy="4"
         r="4"
         id="circle4151"
         style="fill:#007894;fill-opacity:1;stroke-width:1.00003;stroke-dasharray:none" /><circle
         cx="16"
         cy="11"
         r="4"
         id="circle4153"
         style="fill:#007894;fill-opacity:1;stroke-width:1.00003;stroke-dasharray:none" /><circle
         cx="28"
         cy="17"
         r="4"
         id="circle4155"
         style="fill:#007894;fill-opacity:1;stroke-width:1.00003;stroke-dasharray:none" /><circle
         cx="4"
         cy="16"
         r="4"
         id="circle4157"
         style="fill:#007894;fill-opacity:1;stroke-width:1.00003;stroke-dasharray:none" /><circle
         cx="16"
         cy="23"
         r="4"
         id="circle4159"
         style="fill:#007894;fill-opacity:1;stroke-width:1.00003;stroke-dasharray:none" /><circle
         cx="4"
         cy="28"
         r="4"
         id="circle4161"
         style="fill:#007894;fill-opacity:1;stroke-width:1.00003;stroke-dasharray:none" /><path
         d="m 13.4092,22.4902 c -0.1714,0 -0.3447,-0.0439 -0.5029,-0.1362 L 6.086,18.3735 C 5.6089,18.0952 5.4478,17.4829 5.7261,17.0058 6.0044,16.5273 6.6167,16.3676 7.0938,16.6459 l 6.8203,3.9805 c 0.4771,0.2783 0.6382,0.8906 0.3599,1.3677 -0.186,0.3188 -0.521,0.4961 -0.8647,0.4961 z"
         id="path4163"
         style="fill:#007894;fill-opacity:1;stroke-width:1.00003;stroke-dasharray:none" /><path
         d="m 6.7705,27.8506 c -0.3911,0 -0.7627,-0.2314 -0.9233,-0.6147 -0.2129,-0.5098 0.0278,-1.0952 0.5371,-1.3086 l 6.46,-2.7002 c 0.5107,-0.2119 1.0952,0.0283 1.3086,0.5371 0.2129,0.5098 -0.0278,1.0952 -0.5371,1.3086 l -6.46,2.7002 c -0.126,0.0522 -0.2568,0.0776 -0.3853,0.0776 z"
         id="path4165"
         style="fill:#007894;fill-opacity:1;stroke-width:1.00003;stroke-dasharray:none" /><path
         d="m 6.7705,15.8506 c -0.3911,0 -0.7627,-0.2314 -0.9233,-0.6147 -0.2129,-0.5098 0.0278,-1.0952 0.5371,-1.3086 l 6.46,-2.7002 c 0.5107,-0.2104 1.0952,0.0283 1.3086,0.5371 0.2129,0.5098 -0.0278,1.0952 -0.5371,1.3086 l -6.46,2.7002 c -0.126,0.0522 -0.2568,0.0776 -0.3853,0.0776 z"
         id="path4167"
         style="fill:#007894;fill-opacity:1;stroke-width:1.00003;stroke-dasharray:none" /><path
         d="m 13.4092,10.4902 c -0.1714,0 -0.3447,-0.0439 -0.5029,-0.1362 L 6.086,6.3735 C 5.6089,6.0952 5.4478,5.4829 5.7261,5.0058 6.0044,4.5278 6.6167,4.3686 7.0938,4.6459 l 6.8203,3.9805 c 0.4771,0.2783 0.6382,0.8906 0.3599,1.3677 -0.186,0.3188 -0.521,0.4961 -0.8647,0.4961 z"
         id="path4169"
         style="fill:#007894;fill-opacity:1;stroke-width:1.00003;stroke-dasharray:none" /><path
         d="m 25.2393,16.8198 c -0.1558,0 -0.3135,-0.0361 -0.4614,-0.1133 l -6.5801,-3.4297 c -0.4897,-0.2554 -0.6797,-0.8594 -0.4243,-1.3491 0.2549,-0.4893 0.8594,-0.6792 1.3491,-0.4243 l 6.5801,3.4297 c 0.4897,0.2554 0.6797,0.8594 0.4243,1.3491 -0.1782,0.3418 -0.5269,0.5376 -0.8877,0.5376 z"
         id="path4171"
         style="fill:#007894;fill-opacity:1;stroke-width:1.00003;stroke-dasharray:none" /><path
         d="m 18.7007,22.71 c -0.3726,0 -0.7305,-0.209 -0.9023,-0.5679 -0.2388,-0.498 -0.0283,-1.0952 0.4697,-1.334 l 6.6997,-3.21 c 0.4966,-0.2383 1.0947,-0.0293 1.334,0.4697 0.2388,0.498 0.0283,1.0952 -0.4697,1.334 l -6.6997,3.21 c -0.1392,0.0669 -0.2866,0.0981 -0.4316,0.0981 z"
         id="path4173"
         style="fill:#007894;fill-opacity:1;stroke-width:1.00003;stroke-dasharray:none" /></g><g
       id="g2035"
       transform="matrix(0.5005743,0,0,0.5005743,192.01392,1016.7073)"><rect
         style="fill:#000000;fill-opacity:1;stroke:#000000;stroke-width:6.96663;stroke-dasharray:none;stroke-opacity:1"
         id="rect2265"
         width="13.900793"
         height="134.37991"
         x="366.79764"
         y="1565.3278"
         ry="11.452832"
         transform="matrix(-1.4125911,1.4125911,1.4125911,1.4125911,-356.0665,-2049.4288)" /><circle
         style="display:inline;fill:#e6e6e6;fill-opacity:0;stroke:#000000;stroke-width:13.3846;stroke-dasharray:none;stroke-opacity:1"
         id="circle4278"
         cx="1234.649"
         cy="566.01862"
         r="153.82332" /></g></g></svg>
